<mxfile host="app.diagrams.net" modified="2024-03-07T08:19:45.823Z" agent="Mozilla/5.0 (Windows NT 10.0; Win64; x64) AppleWebKit/537.36 (KHTML, like Gecko) Chrome/122.0.0.0 Safari/537.36" etag="61xyJ7jhNfUllYosJT_K" version="24.0.2" type="github">
  <diagram name="第 1 页" id="2gXyJjOuFkFEENA3DUx1">
    <mxGraphModel dx="698" dy="375" grid="1" gridSize="10" guides="1" tooltips="1" connect="1" arrows="1" fold="1" page="1" pageScale="1" pageWidth="827" pageHeight="1169" math="0" shadow="0">
      <root>
        <mxCell id="0" />
        <mxCell id="1" parent="0" />
        <mxCell id="TaAx6gh9WamMbnJy0VXJ-4" value="&lt;ul style=&quot;margin: 0px 0px 0px 15px; padding: 1px 0px 0px 15px; color: rgb(53, 56, 51); font-family: &amp;quot;DejaVu Sans&amp;quot;, Arial, Helvetica, sans-serif; text-align: left; background-color: rgb(255, 255, 255);&quot; class=&quot;inheritance&quot;&gt;&lt;li style=&quot;display: inline; list-style: none;&quot;&gt;&lt;font style=&quot;font-size: 24px;&quot;&gt;java.io.BufferedInputStream: read()&lt;/font&gt;&lt;/li&gt;&lt;/ul&gt;" style="text;html=1;align=center;verticalAlign=middle;whiteSpace=wrap;rounded=0;" vertex="1" parent="1">
          <mxGeometry x="150" y="185" width="430" height="60" as="geometry" />
        </mxCell>
        <mxCell id="TaAx6gh9WamMbnJy0VXJ-8" value="&lt;font style=&quot;font-size: 15px;&quot;&gt;家族&lt;/font&gt;" style="text;html=1;align=center;verticalAlign=middle;whiteSpace=wrap;rounded=0;" vertex="1" parent="1">
          <mxGeometry x="194" y="170" width="40" height="25" as="geometry" />
        </mxCell>
        <mxCell id="TaAx6gh9WamMbnJy0VXJ-9" value="&lt;font style=&quot;font-size: 15px;&quot;&gt;类&lt;/font&gt;" style="text;html=1;align=center;verticalAlign=middle;whiteSpace=wrap;rounded=0;" vertex="1" parent="1">
          <mxGeometry x="325" y="139" width="30" height="20" as="geometry" />
        </mxCell>
        <mxCell id="TaAx6gh9WamMbnJy0VXJ-10" value="&lt;font style=&quot;font-size: 15px;&quot;&gt;包&lt;/font&gt;" style="text;html=1;align=center;verticalAlign=middle;whiteSpace=wrap;rounded=0;" vertex="1" parent="1">
          <mxGeometry x="210" y="247" width="30" height="20" as="geometry" />
        </mxCell>
        <mxCell id="TaAx6gh9WamMbnJy0VXJ-17" value="&lt;font style=&quot;font-size: 15px;&quot;&gt;函数&lt;/font&gt;" style="text;html=1;align=center;verticalAlign=middle;whiteSpace=wrap;rounded=0;" vertex="1" parent="1">
          <mxGeometry x="353.5" y="278" width="50" height="20" as="geometry" />
        </mxCell>
        <mxCell id="TaAx6gh9WamMbnJy0VXJ-18" value="" style="verticalLabelPosition=bottom;shadow=0;dashed=0;align=center;html=1;verticalAlign=top;strokeWidth=1;shape=mxgraph.mockup.markup.curlyBrace;whiteSpace=wrap;strokeColor=#000000;" vertex="1" parent="1">
          <mxGeometry x="190" y="190" width="46" height="20" as="geometry" />
        </mxCell>
        <mxCell id="TaAx6gh9WamMbnJy0VXJ-19" value="" style="verticalLabelPosition=bottom;shadow=0;dashed=0;align=center;html=1;verticalAlign=top;strokeWidth=1;shape=mxgraph.mockup.markup.curlyBrace;whiteSpace=wrap;strokeColor=#000000;rotation=-180;" vertex="1" parent="1">
          <mxGeometry x="191" y="230" width="67" height="20" as="geometry" />
        </mxCell>
        <mxCell id="TaAx6gh9WamMbnJy0VXJ-20" value="" style="verticalLabelPosition=bottom;shadow=0;dashed=0;align=center;html=1;verticalAlign=top;strokeWidth=1;shape=mxgraph.mockup.markup.curlyBrace;whiteSpace=wrap;strokeColor=#000000;rotation=-180;" vertex="1" parent="1">
          <mxGeometry x="190" y="258" width="377" height="20" as="geometry" />
        </mxCell>
        <mxCell id="TaAx6gh9WamMbnJy0VXJ-21" value="" style="verticalLabelPosition=bottom;shadow=0;dashed=0;align=center;html=1;verticalAlign=top;strokeWidth=1;shape=mxgraph.mockup.markup.curlyBrace;whiteSpace=wrap;strokeColor=#000000;rotation=0;" vertex="1" parent="1">
          <mxGeometry x="190" y="159" width="300" height="20" as="geometry" />
        </mxCell>
      </root>
    </mxGraphModel>
  </diagram>
</mxfile>
